<?xml version="1.0" encoding="UTF-8" standalone="no"?>
<!-- Created with Inkscape (http://www.inkscape.org/) -->

<svg
   xmlns:dc="http://purl.org/dc/elements/1.1/"
   xmlns:cc="http://creativecommons.org/ns#"
   xmlns:rdf="http://www.w3.org/1999/02/22-rdf-syntax-ns#"
   xmlns:svg="http://www.w3.org/2000/svg"
   xmlns="http://www.w3.org/2000/svg"
   xmlns:sodipodi="http://sodipodi.sourceforge.net/DTD/sodipodi-0.dtd"
   xmlns:inkscape="http://www.inkscape.org/namespaces/inkscape"
   width="68.509331mm"
   height="50.422104mm"
   viewBox="0 0 242.74959 178.66098"
   id="svg2"
   version="1.1"
   inkscape:version="0.91 r13725"
   sodipodi:docname="haxagon-logos-simple.svg">
  <defs
     id="defs4">
    <inkscape:path-effect
       effect="skeletal"
       id="path-effect5292"
       is_visible="true"
       pattern="m -8499.5859,14644.205 c -330.0579,330.058 -2769.6151,983.735 -3220.4821,862.926 -450.868,-120.81 -2236.747,-1906.689 -2357.557,-2357.557 -120.809,-450.867 532.868,-2890.424 862.926,-3220.4822 330.058,-330.058 2769.615,-983.7353 3220.482,-862.9257 450.8676,120.8096 2236.7471,1906.6889 2357.5567,2357.5569 120.8096,450.867 -532.8677,2890.424 -862.9256,3220.482 z"
       copytype="single_stretched"
       prop_scale="1"
       scale_y_rel="false"
       spacing="0"
       normal_offset="0"
       tang_offset="0"
       prop_units="false"
       vertical_pattern="false"
       fuse_tolerance="0" />
    <inkscape:path-effect
       effect="spiro"
       id="path-effect5290"
       is_visible="true" />
    <inkscape:path-effect
       effect="skeletal"
       id="path-effect5281"
       is_visible="true"
       pattern="m -8499.5859,14644.205 c -330.0579,330.058 -2769.6151,983.735 -3220.4821,862.926 -450.868,-120.81 -2236.747,-1906.689 -2357.557,-2357.557 -120.809,-450.867 532.868,-2890.424 862.926,-3220.4822 330.058,-330.058 2769.615,-983.7353 3220.482,-862.9257 450.8676,120.8096 2236.7471,1906.6889 2357.5567,2357.5569 120.8096,450.867 -532.8677,2890.424 -862.9256,3220.482 z"
       copytype="single_stretched"
       prop_scale="1"
       scale_y_rel="false"
       spacing="0"
       normal_offset="0"
       tang_offset="0"
       prop_units="false"
       vertical_pattern="false"
       fuse_tolerance="0" />
    <inkscape:path-effect
       effect="spiro"
       id="path-effect5279"
       is_visible="true" />
    <inkscape:path-effect
       effect="skeletal"
       id="path-effect5205"
       is_visible="true"
       pattern="m -36.365492,239.35539 c 0,-2.76 2.24,-5 5,-5 2.76,0 5,2.24 5,5 0,2.76 -2.24,5 -5,5 -2.76,0 -5,-2.24 -5,-5 z"
       copytype="single_stretched"
       prop_scale="10"
       scale_y_rel="false"
       spacing="0"
       normal_offset="0"
       tang_offset="0"
       prop_units="false"
       vertical_pattern="false"
       fuse_tolerance="0" />
    <inkscape:path-effect
       effect="spiro"
       id="path-effect5203"
       is_visible="true" />
    <inkscape:path-effect
       effect="skeletal"
       id="path-effect4932"
       is_visible="true"
       pattern="M 0,5 C 0,2.24 2.24,0 5,0 7.76,0 10,2.24 10,5 10,7.76 7.76,10 5,10 2.24,10 0,7.76 0,5 Z"
       copytype="single_stretched"
       prop_scale="1"
       scale_y_rel="false"
       spacing="0"
       normal_offset="0"
       tang_offset="0"
       prop_units="false"
       vertical_pattern="false"
       fuse_tolerance="0" />
    <inkscape:path-effect
       effect="spiro"
       id="path-effect4930"
       is_visible="true" />
    <inkscape:path-effect
       effect="skeletal"
       id="path-effect4920"
       is_visible="true"
       pattern="M 0,5 C 0,2.24 2.24,0 5,0 7.76,0 10,2.24 10,5 10,7.76 7.76,10 5,10 2.24,10 0,7.76 0,5 Z"
       copytype="single_stretched"
       prop_scale="1"
       scale_y_rel="false"
       spacing="0"
       normal_offset="0"
       tang_offset="0"
       prop_units="false"
       vertical_pattern="false"
       fuse_tolerance="0" />
    <inkscape:path-effect
       effect="spiro"
       id="path-effect4918"
       is_visible="true" />
    <inkscape:path-effect
       fuse_tolerance="0"
       vertical_pattern="false"
       prop_units="false"
       tang_offset="0"
       normal_offset="0"
       spacing="0"
       scale_y_rel="false"
       prop_scale="1"
       copytype="single_stretched"
       pattern="m -11529.024,11228.269 c 0,-2.76 2.24,-5 5,-5 2.76,0 5,2.24 5,5 0,2.76 -2.24,5 -5,5 -2.76,0 -5,-2.24 -5,-5 z"
       is_visible="true"
       id="path-effect4858"
       effect="skeletal" />
    <inkscape:path-effect
       is_visible="true"
       id="path-effect4856"
       effect="spiro" />
    <inkscape:path-effect
       effect="skeletal"
       id="path-effect4822"
       is_visible="true"
       pattern="m -15.472789,82.913008 c 0,-2.76 2.24,-5 5,-5 2.76,0 5,2.24 5,5 0,2.76 -2.24,5 -5,5 -2.76,0 -5,-2.24 -5,-5 z"
       copytype="single_stretched"
       prop_scale="1"
       scale_y_rel="false"
       spacing="0"
       normal_offset="0"
       tang_offset="0"
       prop_units="false"
       vertical_pattern="false"
       fuse_tolerance="0" />
    <inkscape:path-effect
       effect="spiro"
       id="path-effect4820"
       is_visible="true" />
    <inkscape:path-effect
       effect="skeletal"
       id="path-effect4756"
       is_visible="true"
       pattern="M 0,5 C 0,2.24 2.24,0 5,0 7.76,0 10,2.24 10,5 10,7.76 7.76,10 5,10 2.24,10 0,7.76 0,5 Z"
       copytype="single_stretched"
       prop_scale="1"
       scale_y_rel="false"
       spacing="0"
       normal_offset="0"
       tang_offset="0"
       prop_units="false"
       vertical_pattern="false"
       fuse_tolerance="0" />
    <inkscape:path-effect
       effect="spiro"
       id="path-effect4754"
       is_visible="true" />
    <inkscape:path-effect
       effect="skeletal"
       id="path-effect4393"
       is_visible="true"
       pattern="m 0,0 436.3859,0 0,436.3859 -436.3859,0 z"
       copytype="single_stretched"
       prop_scale="1"
       scale_y_rel="false"
       spacing="0"
       normal_offset="0"
       tang_offset="0"
       prop_units="false"
       vertical_pattern="false"
       fuse_tolerance="0" />
    <inkscape:path-effect
       effect="spiro"
       id="path-effect4391"
       is_visible="true" />
    <inkscape:path-effect
       effect="skeletal"
       id="path-effect4382"
       is_visible="true"
       pattern="m 0,0 436.3859,0 0,436.3859 -436.3859,0 z"
       copytype="single_stretched"
       prop_scale="1"
       scale_y_rel="false"
       spacing="0"
       normal_offset="0"
       tang_offset="0"
       prop_units="false"
       vertical_pattern="false"
       fuse_tolerance="0" />
    <inkscape:path-effect
       effect="spiro"
       id="path-effect4380"
       is_visible="true" />
    <inkscape:path-effect
       effect="skeletal"
       id="path-effect4360"
       is_visible="true"
       pattern="m 0,0 436.3859,0 0,436.3859 -436.3859,0 z"
       copytype="single_stretched"
       prop_scale="1"
       scale_y_rel="false"
       spacing="0"
       normal_offset="0"
       tang_offset="0"
       prop_units="false"
       vertical_pattern="false"
       fuse_tolerance="0" />
    <inkscape:path-effect
       effect="spiro"
       id="path-effect4358"
       is_visible="true" />
    <inkscape:path-effect
       effect="skeletal"
       id="path-effect4347"
       is_visible="true"
       pattern="m 0,0 436.3859,0 0,436.3859 -436.3859,0 z"
       copytype="single_stretched"
       prop_scale="1"
       scale_y_rel="false"
       spacing="0"
       normal_offset="0"
       tang_offset="0"
       prop_units="false"
       vertical_pattern="false"
       fuse_tolerance="0" />
    <inkscape:path-effect
       effect="spiro"
       id="path-effect4345"
       is_visible="true" />
    <inkscape:path-effect
       effect="skeletal"
       id="path-effect4280"
       is_visible="true"
       pattern="m 389.25308,446.14603 c 34.0209,-60.7311 118.0231,-14.0718 142.2454,29.1883 55.0065,98.2396 -20.9961,212.6611 -116.127,247.3212 -152.6974,55.634 -310.4993,-55.7929 -352.397196,-203.0657 C 4.4495839,313.87303 153.54248,110.20163 352.97878,62.116727 c 258.3498,-62.28919993 508.7365,125.301803 562.5489,376.943203 44.3813,207.5384 -43.4828,424.3747 -209.8806,553.0707"
       copytype="single_stretched"
       prop_scale="1"
       scale_y_rel="false"
       spacing="0"
       normal_offset="0"
       tang_offset="0"
       prop_units="false"
       vertical_pattern="false"
       fuse_tolerance="0" />
    <inkscape:path-effect
       effect="spiro"
       id="path-effect4278"
       is_visible="true" />
    <inkscape:path-effect
       effect="skeletal"
       id="path-effect4154"
       is_visible="true"
       pattern="m 307.0863,64.649764 c 106.6667,0 226.2742,89.131306 226.2742,89.131306 0,0 -119.6075,89.13132 -226.2742,89.13131 -106.6666,0 -226.274071,-89.13131 -226.274071,-89.13131 0,0 119.607471,-89.131306 226.274071,-89.131306 z"
       copytype="single_stretched"
       prop_scale="1"
       scale_y_rel="false"
       spacing="0"
       normal_offset="0"
       tang_offset="0"
       prop_units="false"
       vertical_pattern="false"
       fuse_tolerance="0" />
    <inkscape:path-effect
       effect="spiro"
       id="path-effect4152"
       is_visible="true" />
    <inkscape:path-effect
       effect="spiro"
       id="path-effect4820-8"
       is_visible="true" />
    <inkscape:path-effect
       effect="skeletal"
       id="path-effect4822-6"
       is_visible="true"
       pattern="m 11732.538,-11169.065 c 0,-2.76 2.24,-5 5,-5 2.76,0 5,2.24 5,5 0,2.76 -2.24,5 -5,5 -2.76,0 -5,-2.24 -5,-5 z"
       copytype="single_stretched"
       prop_scale="1"
       scale_y_rel="false"
       spacing="0"
       normal_offset="0"
       tang_offset="0"
       prop_units="false"
       vertical_pattern="false"
       fuse_tolerance="0" />
  </defs>
  <sodipodi:namedview
     id="base"
     pagecolor="#ffffff"
     bordercolor="#666666"
     borderopacity="1.0"
     inkscape:pageopacity="0.0"
     inkscape:pageshadow="2"
     inkscape:zoom="0.50000001"
     inkscape:cx="-465.54765"
     inkscape:cy="-97.420731"
     inkscape:document-units="px"
     inkscape:current-layer="layer1"
     showgrid="false"
     showguides="true"
     inkscape:guide-bbox="true"
     inkscape:window-width="1366"
     inkscape:window-height="746"
     inkscape:window-x="-8"
     inkscape:window-y="-8"
     inkscape:window-maximized="1"
     fit-margin-top="0"
     fit-margin-left="0"
     fit-margin-right="0"
     fit-margin-bottom="0" />
  <metadata
     id="metadata7">
    <rdf:RDF>
      <cc:Work
         rdf:about="">
        <dc:format>image/svg+xml</dc:format>
        <dc:type
           rdf:resource="http://purl.org/dc/dcmitype/StillImage" />
        <dc:title />
      </cc:Work>
    </rdf:RDF>
  </metadata>
  <g
     inkscape:label="Layer 1"
     inkscape:groupmode="layer"
     id="layer1"
     transform="translate(2814.2836,-12333.605)">
    <g
       id="g4901"
       transform="translate(11.71573,0.6502605)"
       style="fill:#ffffff;fill-opacity:1">
      <path
         inkscape:connector-curvature="0"
         id="path4633-2-3-1-1-3"
         d="m -2704.6231,12332.955 c -5.0734,0 -28.8474,13.727 -31.3841,18.121 -1.9346,3.351 -2.3896,20.086 -1.3736,29.804 -8.9202,3.969 -23.2366,12.755 -25.1746,16.111 -2.5369,4.396 -2.5369,31.846 0,36.24 2.5367,4.393 26.3106,18.119 31.3841,18.119 3.8774,0 18.6523,-8.01 26.5467,-13.751 7.8948,5.742 22.6707,13.751 26.5484,13.751 5.0734,0 28.8459,-13.726 31.3825,-18.119 2.537,-4.394 2.537,-31.844 0,-36.24 -1.9381,-3.356 -16.2548,-12.146 -25.1746,-16.112 1.0158,-9.718 0.5624,-26.452 -1.3721,-29.803 -2.5366,-4.394 -26.3092,-18.121 -31.3827,-18.121 z m 0,14.746 c 3.0094,0 17.1103,8.141 18.6152,10.749 1.5046,2.603 1.5046,18.887 0,21.495 -1.5048,2.604 -15.6057,10.745 -18.6152,10.745 -3.0091,0 -17.1103,-8.141 -18.6151,-10.745 -1.5045,-2.608 -1.5045,-18.892 0,-21.495 1.5048,-2.608 15.6059,-10.749 18.6151,-10.749 z m -26.5482,45.918 c 3.0094,0 17.1104,8.139 18.615,10.748 1.5048,2.602 1.5048,18.887 0,21.492 -1.5046,2.605 -15.6055,10.748 -18.615,10.748 -3.0093,0 -17.1105,-8.144 -18.6151,-10.748 -1.5045,-2.605 -1.5045,-18.89 0,-21.492 1.5046,-2.609 15.6058,-10.748 18.6151,-10.748 z m 53.0951,0 c 3.0093,0 17.1102,8.139 18.615,10.748 1.5046,2.602 1.5046,18.887 0,21.492 -1.5048,2.605 -15.6056,10.748 -18.615,10.748 -3.0093,0 -17.1105,-8.144 -18.6153,-10.748 -1.5045,-2.605 -1.5045,-18.89 0,-21.492 1.5048,-2.609 15.606,-10.748 18.6153,-10.748 z"
         style="opacity:1;fill:#ffffff;fill-opacity:1;stroke:none;stroke-width:100;stroke-linecap:butt;stroke-linejoin:miter;stroke-miterlimit:4;stroke-dasharray:none;stroke-dashoffset:0;stroke-opacity:1" />
      <path
         d="m -2825.9993,12473.64 8.0223,0 0,14.431 14.7943,0 0,-14.431 8.0223,0 0,36.465 -8.0223,0 0,-14.638 -14.7943,0 0,14.638 -8.0223,0 0,-36.465 z"
         style="font-style:normal;font-variant:normal;font-weight:bold;font-stretch:normal;font-size:medium;line-height:900%;font-family:'Gotham Bold';-inkscape-font-specification:'Gotham Bold, Bold';letter-spacing:-3.31999946px;word-spacing:0px;fill:#ffffff;fill-opacity:1;stroke:none;stroke-width:1px;stroke-linecap:butt;stroke-linejoin:miter;stroke-opacity:1"
         id="path5355-6-7-4-9-8-3-4-0-1"
         inkscape:connector-curvature="0" />
      <path
         id="path5357-9-0-7-2-4-1-5-6-2"
         d="m -2778.243,12473.381 -15.6281,36.724 8.1789,0 3.3337,-8.179 15.4203,0 3.3337,8.179 8.3865,0 -15.628,-36.724 -7.397,0 z m 3.5954,9.636 4.8435,11.825 -9.6886,0 4.8451,-11.825 z"
         style="font-style:normal;font-variant:normal;font-weight:bold;font-stretch:normal;font-size:medium;line-height:900%;font-family:'Gotham Bold';-inkscape-font-specification:'Gotham Bold, Bold';letter-spacing:-3.31999946px;word-spacing:0px;fill:#ffffff;fill-opacity:1;stroke:none;stroke-width:1px;stroke-linecap:butt;stroke-linejoin:miter;stroke-opacity:1"
         inkscape:connector-curvature="0" />
      <path
         d="m -2746.805,12491.561 -12.1897,-17.921 9.3767,0 7.6576,11.826 7.7097,-11.826 9.1163,0 -12.1897,17.816 12.7106,18.649 -9.3768,0 -8.1785,-12.502 -8.2306,12.502 -9.1162,0 12.7106,-18.544 z"
         style="font-style:normal;font-variant:normal;font-weight:bold;font-stretch:normal;font-size:medium;line-height:900%;font-family:'Gotham Bold';-inkscape-font-specification:'Gotham Bold, Bold';letter-spacing:-3.31999946px;word-spacing:0px;fill:#ffffff;fill-opacity:1;stroke:none;stroke-width:1px;stroke-linecap:butt;stroke-linejoin:miter;stroke-opacity:1"
         id="path5359-8-3-2-6-5-6-4-3-2"
         inkscape:connector-curvature="0" />
      <path
         d="m -2704.7739,12494.842 -4.8446,-11.824 -4.8446,11.824 9.6892,0 z m -8.4391,-21.461 7.3972,0 15.6279,36.724 -8.387,0 -3.3339,-8.178 -15.4194,0 -3.334,8.178 -8.1785,0 15.6277,-36.724 z"
         style="font-style:normal;font-variant:normal;font-weight:bold;font-stretch:normal;font-size:medium;line-height:900%;font-family:'Gotham Bold';-inkscape-font-specification:'Gotham Bold, Bold';letter-spacing:-3.31999946px;word-spacing:0px;fill:#ffffff;fill-opacity:1;stroke:none;stroke-width:1px;stroke-linecap:butt;stroke-linejoin:miter;stroke-opacity:1"
         id="path5361-8-1-7-6-4-4-0-2-0"
         inkscape:connector-curvature="0" />
      <path
         d="m -2673.8198,12510.731 q -4.2717,0 -7.8138,-1.407 -3.4903,-1.406 -6.0428,-3.907 -2.5004,-2.5 -3.907,-5.938 -1.4065,-3.438 -1.4065,-7.502 l 0,-0.104 q 0,-3.907 1.4065,-7.293 1.4586,-3.438 4.0112,-5.99 2.5526,-2.605 6.0427,-4.064 3.4902,-1.511 7.6577,-1.511 2.4483,0 4.4279,0.366 2.0315,0.311 3.7506,0.937 1.7191,0.625 3.2297,1.563 1.5107,0.938 2.9173,2.135 l -5.053,6.095 q -1.0419,-0.886 -2.0837,-1.563 -1.0419,-0.677 -2.1879,-1.146 -1.094,-0.468 -2.3963,-0.729 -1.3023,-0.26 -2.8651,-0.26 -2.1879,0 -4.1153,0.937 -1.8754,0.886 -3.334,2.449 -1.4065,1.51 -2.2399,3.594 -0.7814,2.032 -0.7814,4.376 l 0,0.104 q 0,2.501 0.7814,4.636 0.8334,2.084 2.292,3.647 1.5107,1.563 3.4902,2.448 2.0317,0.834 4.48,0.834 4.48,0 7.5534,-2.188 l 0,-5.209 -8.0743,0 0,-6.929 15.8362,0 0,15.836 q -2.8131,2.397 -6.72,4.116 -3.8549,1.667 -8.8557,1.667 z"
         style="font-style:normal;font-variant:normal;font-weight:bold;font-stretch:normal;font-size:medium;line-height:900%;font-family:'Gotham Bold';-inkscape-font-specification:'Gotham Bold, Bold';letter-spacing:-3.31999946px;word-spacing:0px;fill:#ffffff;fill-opacity:1;stroke:none;stroke-width:1px;stroke-linecap:butt;stroke-linejoin:miter;stroke-opacity:1"
         id="path5363-3-3-1-7-0-1-2-0-2"
         inkscape:connector-curvature="0" />
      <path
         d="m -2615.6514,12473.64 7.3972,0 17.0864,22.453 0,-22.453 7.9181,0 0,36.465 -6.8242,0 -17.6593,-23.181 0,23.181 -7.9182,0 0,-36.465 z"
         style="font-style:normal;font-variant:normal;font-weight:bold;font-stretch:normal;font-size:medium;line-height:900%;font-family:'Gotham Bold';-inkscape-font-specification:'Gotham Bold, Bold';letter-spacing:-3.31999946px;word-spacing:0px;fill:#ffffff;fill-opacity:1;stroke:none;stroke-width:1px;stroke-linecap:butt;stroke-linejoin:miter;stroke-opacity:1"
         id="path5367-0-5-3-6-9-3-8-6-1"
         inkscape:connector-curvature="0" />
      <circle
         r="4.1751809"
         cy="12467.979"
         cx="-2781.865"
         id="path5626-5-9-8-1-2-4-1-7"
         style="opacity:1;fill:#ffffff;fill-opacity:1;stroke:none;stroke-width:100;stroke-linecap:butt;stroke-linejoin:miter;stroke-miterlimit:4;stroke-dasharray:none;stroke-dashoffset:0;stroke-opacity:1" />
      <circle
         r="4.1751809"
         cy="12467.979"
         cx="-2767.2244"
         id="path5626-2-0-9-6-8-9-8-5-5"
         style="opacity:1;fill:#ffffff;fill-opacity:1;stroke:none;stroke-width:100;stroke-linecap:butt;stroke-linejoin:miter;stroke-miterlimit:4;stroke-dasharray:none;stroke-dashoffset:0;stroke-opacity:1" />
      <path
         id="path4817-5-0-5-1"
         d="m -2637.1424,12471.682 c -2.7955,0 -15.8939,7.564 -17.2917,9.985 -1.3978,2.42 -1.3978,17.547 0,19.968 1.3978,2.422 14.4962,9.981 17.2917,9.981 2.7954,0 15.8972,-7.559 17.295,-9.981 1.3978,-2.421 1.3978,-17.548 0,-19.968 -1.3978,-2.421 -14.4996,-9.985 -17.295,-9.985 z m 0,8.613 c 1.5897,0 9.0398,4.3 9.8346,5.677 0.7946,1.376 0.7946,9.977 0,11.355 -0.7948,1.374 -8.2449,5.676 -9.8346,5.676 -1.5893,0 -9.0366,-4.302 -9.8314,-5.676 -0.7946,-1.378 -0.7946,-9.979 0,-11.355 0.7948,-1.377 8.2421,-5.677 9.8314,-5.677 z"
         style="opacity:1;fill:#ffffff;fill-opacity:1;stroke:none;stroke-width:100;stroke-linecap:butt;stroke-linejoin:miter;stroke-miterlimit:4;stroke-dasharray:none;stroke-dashoffset:0;stroke-opacity:1"
         inkscape:connector-curvature="0" />
    </g>
  </g>
</svg>
